<svg xmlns="http://www.w3.org/2000/svg" width="1200" height="300" viewBox="0 0 1200 300">
  <defs>
    <linearGradient id="bg" x1="0" y1="0" x2="1" y2="1">
      <stop offset="0" stop-color="#0F0F0F"/>
      <stop offset="1" stop-color="#161616"/>
    </linearGradient>
    <linearGradient id="mk" x1="0" y1="0" x2="1" y2="1">
      <stop offset="0" stop-color="#88C0D0"/>
      <stop offset="1" stop-color="#5266EB"/>
    </linearGradient>
  </defs>
  <rect width="1200" height="300" fill="url(#bg)"/>
  <g stroke="#262626" stroke-width="1">
    <path d="M0 75H1200M0 150H1200M0 225H1200"/>
    <path d="M150 0V300M300 0V300M450 0V300M600 0V300M750 0V300M900 0V300M1050 0V300"/>
  </g>
  <text x="600" y="136" text-anchor="middle" font-family="ui-monospace, SFMono-Regular, Menlo, Consolas, monospace" font-size="58" font-weight="700" fill="#F2F2F0" letter-spacing="-1">research-designer</text>
  <text x="600" y="176" text-anchor="middle" font-family="ui-sans-serif, system-ui, -apple-system, sans-serif" font-size="17" fill="#9C9C98">No time to design it. Too proud to ship it ugly.</text>
  <g transform="translate(442,210)">
    <rect x="0"   y="0" width="28" height="14" rx="3" fill="#0F0F0F" stroke="#3A3A3A"/>
    <rect x="36"  y="0" width="28" height="14" rx="3" fill="#1A1A1A"/>
    <rect x="72"  y="0" width="28" height="14" rx="3" fill="#2A2A2A"/>
    <rect x="108" y="0" width="28" height="14" rx="3" fill="#6B6B67"/>
    <rect x="144" y="0" width="28" height="14" rx="3" fill="#9C9C98"/>
    <rect x="180" y="0" width="28" height="14" rx="3" fill="#F2F2F0"/>
    <rect x="216" y="0" width="28" height="14" rx="3" fill="#88C0D0"/>
    <rect x="252" y="0" width="28" height="14" rx="3" fill="url(#mk)"/>
    <rect x="288" y="0" width="28" height="14" rx="3" fill="#D97A2B"/>
  </g>
</svg>
